<?xml version="1.0" standalone="no"?>
<!DOCTYPE svg PUBLIC "-//W3C//DTD SVG 1.0//EN" "http://www.w3.org/TR/2001/REC-SVG-20010904/DTD/svg10.dtd">
<svg xmlns="http://www.w3.org/2000/svg" xmlns:xlink="http://www.w3.org/1999/xlink" id="body_1" width="1024" height="768">

<g transform="matrix(6 0 0 6 128.00003 -0)">
    <path d="M115.4 30.7L67.1 2.9C 66.299995 2.4 65.2 2.2 64 2.2C 62.8 2.2 61.7 2.5 60.9 2.9L60.9 2.9L12.900002 30.8C 11.200002 31.8 10.000002 34.3 10.000002 36.2L10.000002 36.2L10.000002 91.9C 10.000002 93 10.200002 94.3 11.000002 95.4L11.000002 95.4L117.8 33.4C 117.200005 32.2 116.3 31.300001 115.4 30.7z" stroke="none" fill="#D26383" fill-rule="nonzero" />
    <path d="M10.7 95.3C 11.2 96.100006 11.9 96.8 12.599999 97.200005L12.599999 97.200005L60.8 125.100006C 61.6 125.600006 62.7 125.8 63.899998 125.8C 65.1 125.8 66.2 125.5 67 125.100006L67 125.100006L115 97.200005C 116.7 96.200005 117.9 93.700005 117.9 91.8L117.9 91.8L117.9 36.1C 117.9 35.199997 117.8 34.199997 117.3 33.3L117.3 33.3L10.700005 95.3L10.7 95.3z" stroke="none" fill="#9C033A" fill-rule="nonzero" />
    <path d="M85.3 76.1C 81.1 83.5 73.1 88.5 64 88.5C 50.5 88.5 39.5 77.5 39.5 64C 39.5 50.5 50.5 39.5 64 39.5C 73.1 39.5 81.1 44.5 85.3 52L85.3 52L98.3 44.5C 91.5 32.6 78.700005 24.5 64 24.5C 42.2 24.5 24.5 42.2 24.5 64C 24.5 85.8 42.2 103.5 64 103.5C 78.6 103.5 91.4 95.5 98.2 83.7L98.2 83.7L85.299995 76.1L85.3 76.1z" stroke="none" fill="#FFFFFF" fill-rule="nonzero" />
    <path d="M82.1 61.8L87.299995 61.8L87.299995 56.5L91.7 56.5L91.7 61.8L97 61.8L97 66.2L91.7 66.2L91.7 71.399994L87.299995 71.399994L87.299995 66.2L82.1 66.2L82.1 61.799995L82.1 61.8zM100.6 61.8L105.799995 61.8L105.799995 56.5L110.2 56.5L110.2 61.8L115.5 61.8L115.5 66.2L110.2 66.2L110.2 71.399994L105.799995 71.399994L105.799995 66.2L100.6 66.2L100.6 61.799995z" stroke="none" fill="#FFFFFF" fill-rule="nonzero" />
</g>
</svg>