<?xml version="1.0" standalone="no"?>
<!DOCTYPE svg PUBLIC "-//W3C//DTD SVG 1.0//EN" "http://www.w3.org/TR/2001/REC-SVG-20010904/DTD/svg10.dtd">
<svg xmlns="http://www.w3.org/2000/svg" xmlns:xlink="http://www.w3.org/1999/xlink" id="body_1" width="1024" height="768">

<g transform="matrix(6 0 0 6 128.00003 -0)">
	<g>
        <path d="M64 1.512C 40.507 1.512 21.455002 20.559 21.455002 44.057C 21.455002 62.854 33.645 78.802 50.550003 84.427C 52.676003 84.821 53.457005 83.504005 53.457005 82.380005C 53.457005 81.366005 53.417004 78.01401 53.399006 74.46001C 41.562004 77.033005 39.065006 69.44001 39.065006 69.44001C 37.130005 64.52201 34.341007 63.214012 34.341007 63.214012C 30.481007 60.574013 34.63101 60.628014 34.63101 60.628014C 38.904007 60.928013 41.154007 65.013016 41.154007 65.013016C 44.948006 71.51701 51.107006 69.63602 53.534008 68.54902C 53.917007 65.79902 55.01901 63.92102 56.236008 62.85902C 46.786007 61.78402 36.852005 58.13502 36.852005 41.833023C 36.852005 37.188023 38.514004 33.393024 41.236004 30.413023C 40.794003 29.341022 39.338005 25.013023 41.648003 19.153023C 41.648003 19.153023 45.22 18.011023 53.348003 23.516022C 56.743004 22.57302 60.383003 22.100021 63.998 22.084023C 67.614 22.101023 71.256004 22.574022 74.656 23.516022C 82.776 18.012022 86.343994 19.154022 86.343994 19.154022C 88.659996 25.014023 87.203995 29.341022 86.76199 30.414022C 89.48999 33.39202 91.13999 37.188023 91.13999 41.834023C 91.13999 58.174023 81.18699 61.772022 71.71299 62.82402C 73.23899 64.14402 74.59899 66.734024 74.59899 70.70402C 74.59899 76.39602 74.550995 80.97702 74.550995 82.37802C 74.550995 83.50802 75.31699 84.83602 77.47299 84.41802C 94.36899 78.786026 106.54299 62.844025 106.54299 44.05302C 106.545 20.56 87.497 1.512 64 1.512z" stroke="none" fill="#181616" fill-rule="nonzero" />
        <path d="M37.57 62.596C 37.475 62.808002 37.142 62.871002 36.84 62.726C 36.53 62.586002 36.358 62.299004 36.458 62.086002C 36.548 61.870003 36.882 61.809002 37.191 61.954002C 37.501003 62.094 37.677002 62.384003 37.571003 62.596L37.571003 62.596L37.57 62.596zM39.293 64.52C 39.09 64.70699 38.693 64.619995 38.423 64.322C 38.145 64.025 38.093 63.628 38.299 63.438C 38.507 63.25 38.892 63.338 39.169 63.635C 39.448997 63.934998 39.503998 64.327995 39.292 64.519zM40.97 66.967995C 40.710003 67.149994 40.283 66.979996 40.02 66.601C 39.758 66.224 39.758 65.770996 40.025 65.588C 40.289 65.406 40.709 65.57 40.975002 65.945C 41.237003 66.33 41.237003 66.784996 40.97 66.969zM43.268 69.336C 43.035 69.593 42.538002 69.524 42.175003 69.173C 41.803 68.829994 41.700005 68.342995 41.933002 68.086C 42.170002 67.828995 42.669003 67.901 43.035004 68.249C 43.405003 68.591 43.517002 69.079 43.268005 69.335zM46.440002 70.71C 46.336002 71.044 45.858 71.195 45.376003 71.054C 44.894005 70.908 44.58 70.518 44.676003 70.182C 44.776 69.846 45.258003 69.689 45.743004 69.84C 46.223003 69.98399 46.538002 70.369995 46.439003 70.71zM49.920002 70.965C 49.933002 71.314995 49.524002 71.606995 49.018 71.613C 48.510002 71.625 48.098003 71.340996 48.092003 70.995C 48.092003 70.64101 48.492004 70.353004 49.000004 70.345C 49.506004 70.335 49.920002 70.617004 49.920002 70.965004zM53.160004 70.413994C 53.220005 70.756 52.870003 71.107994 52.367004 71.201C 51.873005 71.293 51.417004 71.08099 51.353004 70.741C 51.293003 70.391 51.650005 70.041 52.143005 69.949C 52.646004 69.861 53.096004 70.06699 53.160004 70.415z" stroke="none" fill="#181616" fill-rule="nonzero" />
	</g>
    <path d="M24.855 108.302L14.155 108.302L24.855 108.302L14.155 108.302L14.155 113.534004L24.855 108.302L14.155 108.302L14.155 113.534004L18.328 113.534004L18.328 120.034004C 18.328 120.034004 17.390999 120.354004 14.797999 120.354004C 11.742 120.354004 7.4709992 119.23801 7.4709992 109.846C 7.4709992 100.453 11.918999 99.216 16.095 99.216C 19.709 99.216 21.265 99.852005 22.257 100.159004C 22.567 100.253006 22.857 99.943 22.857 99.66701L22.857 99.66701L24.050001 94.61201L22.857 99.66701L24.050001 94.61201C 23.647001 94.324005 21.193 92.952 14.992002 92.952C 7.8480015 92.952 0.5200014 95.990005 0.5200014 110.602005C 0.5200014 125.212006 8.910002 127.38901 15.980001 127.38901C 21.834002 127.38901 25.385002 124.88701 25.385002 124.88701C 25.531002 124.80701 25.547003 124.602005 25.547003 124.50701L25.547003 124.50701L25.547003 108.19101L25.547003 124.50701L25.547003 108.19101L24.855 108.302zM79.506 94.81L73.48 94.81L79.506 94.81L73.48 94.81L73.482 106.453995L64.090004 106.453995L64.090004 95.313L79.506 94.81L73.48 94.81L73.482 106.453995L64.090004 106.453995L64.090004 95.313L57.07 95.313L79.506 94.81L73.48 94.81L73.482 106.453995L64.090004 106.453995L64.090004 95.313L57.07 95.313L57.07 126.843C 57.07 127.12 57.294 127.346 57.568 127.346L57.568 127.346L63.593002 127.346L57.568 127.346L63.593002 127.346L63.593002 113.86L72.985 113.86L72.969 127.346C 72.969 127.624 73.193 127.85 73.469 127.85L73.469 127.85L79.507 127.85L73.469 127.85L79.507 127.85L79.507 96.32L73.469 127.85L79.507 127.85L79.507 96.32zM32.339996 95.527C 30.195995 95.527 28.455996 97.28 28.455996 99.45C 28.455996 101.617 30.195995 103.375 32.339996 103.375C 34.485996 103.375 36.224995 101.617 36.224995 99.45C 36.224995 97.28 34.484993 95.527 32.339996 95.527zM35.295998 105.135L29.29 105.135C 29.014002 105.135 28.768002 105.419 28.768002 105.695L28.768002 105.695L28.768002 126.547C 28.768002 127.159996 29.150002 127.341995 29.644001 127.341995L29.644001 127.341995L35.054 127.341995C 35.649002 127.341995 35.794003 127.049995 35.794003 126.536995L35.794003 126.536995L35.794003 105.63799L35.794003 126.536995L35.794003 105.63799zM102.902 105.182L96.922 105.182L102.902 105.182L96.922 105.182L96.922 120.642C 96.922 120.642 95.402 121.752 93.246994 121.752C 91.09199 121.752 90.52 120.775 90.52 118.664L90.52 118.664L90.52 105.182L90.52 118.664L90.52 105.182L84.451996 105.182L90.52 118.664L90.52 105.182L84.451996 105.182L84.451996 119.684C 84.451996 125.953995 87.947 127.488 92.754 127.488C 96.698 127.488 99.878 125.308 99.878 125.308C 99.878 125.308 100.028 126.458 100.098 126.593C 100.168 126.729004 100.345 126.866005 100.538 126.866005L100.538 126.866005L104.398 126.84901L100.538 126.866005L104.398 126.84901L104.395004 105.68301L100.538 126.866005L104.398 126.84901L104.395004 105.68301zM119.244 104.474C 115.84801 104.474 113.538 105.989 113.538 105.989L113.538 105.989L113.538 95.312L113.538 105.989L113.538 95.312L107 95.312L113.538 105.989L113.538 95.312L107 95.312L107 126.841995L113.538 105.989L113.538 95.312L107 95.312L107 126.841995L111.192 126.841995C 111.382 126.841995 111.524 126.744995 111.629 126.574C 111.731995 126.404 111.882996 125.119995 111.882996 125.119995C 111.882996 125.119995 114.353 127.45999 119.031 127.45999C 124.520996 127.45999 127.671 124.675995 127.671 114.95799C 127.671 105.23999 122.641 103.96999 119.243 103.96999zM116.884 122.238C 114.811005 122.174995 113.404 121.234 113.404 121.234L113.404 121.234L113.404 111.249C 113.404 111.249 114.792 110.399 116.493996 110.245C 118.646996 110.052 120.72199 110.703 120.72199 115.839005C 120.72199 121.256004 119.786995 122.325005 116.884995 122.23701zM53.195004 122.12C 52.932003 122.12 52.258003 122.227005 51.565002 122.227005C 49.345 122.227005 48.592003 121.19501 48.592003 119.85901L48.592003 119.85901L48.592003 110.99301L53.112003 110.99301L48.592003 119.85901L48.592003 110.99301L53.112003 110.99301L53.112003 106.13701L48.592003 119.85901L48.592003 110.99301L53.112003 110.99301L53.112003 106.13701L48.592003 106.13701L48.585003 100.16701C 48.585003 99.94001 48.469 99.82701 48.207005 99.82701L48.207005 99.82701L42.047005 99.82701C 41.809006 99.82701 41.680004 99.933014 41.680004 100.16201L41.680004 100.16201L41.680004 106.33201C 41.680004 106.33201 38.593002 107.07701 38.385002 107.13701L38.385002 107.13701L38.385002 111.01401L38.385002 107.13701L38.385002 111.01401L41.543003 111.01401L41.543003 120.34201C 41.543003 127.27201 46.403004 127.95201 49.683002 127.95201C 51.180004 127.95201 52.973003 127.47201 53.269 127.362015C 53.449 127.29501 53.552002 127.110016 53.552002 126.90901L53.552002 126.90901L53.556004 122.64401L53.552002 126.90901L53.556004 122.64401z" stroke="none" fill="#100E0F" fill-rule="nonzero" />
</g>
</svg>