<?xml version="1.0" standalone="no"?>
<!DOCTYPE svg PUBLIC "-//W3C//DTD SVG 1.0//EN" "http://www.w3.org/TR/2001/REC-SVG-20010904/DTD/svg10.dtd">
<svg xmlns="http://www.w3.org/2000/svg" xmlns:xlink="http://www.w3.org/1999/xlink" id="body_1" width="1024" height="768">

<g transform="matrix(6 0 0 6 128.00003 -0)">
    <path d="M23.817 74.771C 23.782999 74.909004 23.644999 74.978004 23.404 74.978004L23.404 74.978004L18.806 74.978004C 18.53 74.978004 18.285 74.858 18.083 74.616005L18.083 74.616005L10.49 64.957L8.372 66.972L8.372 74.462C 8.372 74.807 8.2 74.979 7.856 74.979L7.856 74.979L4.29 74.979C 3.9459999 74.979 3.774 74.807 3.774 74.463L3.774 74.463L3.774 40.318C 3.774 39.975002 3.9459999 39.797 4.29 39.797L4.29 39.797L7.855 39.797C 8.199 39.797 8.372 39.97 8.372 40.318L8.372 40.318L8.372 61.342003L17.463 52.148003C 17.703999 51.908 17.945 51.786003 18.185999 51.786003L18.185999 51.786003L22.939 51.786003C 23.144999 51.786003 23.282999 51.873005 23.352 52.044003C 23.421999 52.251003 23.41 52.405003 23.293999 52.509003L23.293999 52.509003L13.6919985 61.805L23.711998 74.255C 23.849998 74.393 23.884998 74.564995 23.816998 74.770996L23.816998 74.770996L23.817 74.771zM42.44 74.978004L38.876 74.978004C 38.496 74.978004 38.308 74.80601 38.308 74.456L38.308 74.456L38.308 73.732C 36.792 74.868004 34.847 75.437004 32.471 75.437004C 30.301 75.437004 28.424 74.76401 26.839 73.423004C 25.289001 72.046005 24.515001 70.29401 24.515001 68.15401C 24.515001 64.77901 26.615002 62.489006 30.817001 61.284008C 32.47 60.801006 34.966003 60.389008 38.307 60.044006C 38.411 58.771008 38.075 57.686005 37.3 56.790005C 36.524 55.894005 35.396 55.447006 33.916 55.447006C 31.987 55.447006 30.025 56.142006 28.028 57.51301C 27.718 57.68601 27.494 57.65101 27.355999 57.410007L27.355999 57.410007L25.501999 54.77601C 25.328999 54.569008 25.381998 54.328007 25.655998 54.05301C 28.307999 52.22801 31.062998 51.31501 33.920998 51.31501C 36.124996 51.31501 38.002 51.83101 39.552998 52.86501C 41.825996 54.38001 42.961998 56.80701 42.961998 60.14701L42.961998 60.14701L42.961998 74.45501C 42.961998 74.80001 42.788998 74.97701 42.44 74.97701zM38.307 64.188C 34.932 64.534004 32.625 64.981 31.386 65.532005C 29.698 66.255005 28.939999 67.287 29.112 68.632C 29.215 69.38901 29.595 70 30.248999 70.465004C 30.902998 70.93 31.661 71.19701 32.522 71.26501C 34.932 71.438 36.867 70.80001 38.307 69.354004zM64.067 83.941C 62.190002 85.886 59.529 86.86 56.087 86.86C 54.089 86.86 52.195004 86.36 50.405003 85.362C 50.025 85.12 49.578003 84.802 49.062004 84.406C 48.821003 84.2 48.804005 83.942 49.004005 83.631L49.004005 83.631L51.437004 81.198C 51.42329 80.96831 51.552986 80.75405 51.762848 80.6597C 51.97271 80.565346 52.21905 80.610535 52.381756 80.77324C 52.54446 80.93594 52.589657 81.18228 52.495304 81.39214C 52.40095 81.60201 52.186695 81.731705 51.957005 81.717995L49.004005 83.631L51.437004 81.198C 53.885006 83.645996 55.762005 84.61099 57.587006 84.61099C 61.759007 84.61099 63.837006 82.440994 63.837006 78.10199L63.837006 78.10199L63.837006 75.41599C 62.219006 76.758995 60.067005 77.43099 57.380005 77.43099C 54.040005 77.43099 51.422005 76.174995 49.529007 73.660995C 47.876007 71.45699 47.049007 68.67799 47.049007 65.343994C 47.049007 62.175995 47.841007 59.489994 49.426006 57.290993C 51.280006 54.64099 53.920006 53.31399 57.329006 53.31399C 59.912006 53.31399 62.082005 53.985992 63.837006 55.32899L63.837006 55.32899L63.837006 54.29599C 63.837006 53.95199 64.009 53.77899 64.354004 53.77899L64.354004 53.77899L67.91901 53.77899C 68.26201 53.77899 68.44001 53.951992 68.44001 54.29599L68.44001 54.29599L68.44001 77.38599C 68.44001 81.136986 67.50201 83.986984 65.62501 85.93298zM62.29 59.12C 61.429 56.917 59.431 55.814 56.298 55.814C 52.269 55.814 50.256 58.329 50.256 63.356C 50.256 66.145 50.928 68.178 52.27 69.451C 53.268 70.45 54.56 70.949 56.144 70.949C 59.38 70.949 61.43 69.847 62.285 67.643zM88.364 83.946C 86.487 85.89 83.826996 86.864 80.383995 86.864C 78.384995 86.864 76.492 86.364 74.701 85.367C 74.322 85.125 73.875 84.807 73.35899 84.410995C 73.118 84.204994 73.10099 83.947 73.300995 83.635994L73.300995 83.635994L75.73399 81.202995C 75.720276 80.97331 75.84997 80.759056 76.05983 80.6647C 76.26969 80.57035 76.51604 80.61554 76.67874 80.778244C 76.841446 80.94095 76.886635 81.187294 76.79228 81.397156C 76.69793 81.60702 76.48367 81.73671 76.25399 81.72299L73.300995 83.635994L75.73399 81.202995C 78.18199 83.65099 80.05799 84.61499 81.88399 84.61499C 86.054985 84.61499 88.14099 82.44499 88.14099 78.10699L88.14099 78.10699L88.14099 75.42099C 86.52099 76.76399 84.37499 77.43499 81.68399 77.43499C 78.343994 77.43499 75.72599 76.17899 73.83299 73.66499C 72.17899 71.46199 71.35299 68.68299 71.35299 65.34899C 71.35299 62.180992 72.14499 59.49499 73.72799 57.29599C 75.581985 54.64499 78.22299 53.31899 81.63199 53.31899C 84.21499 53.31899 86.38399 53.99099 88.13999 55.33399L88.13999 55.33399L88.13999 54.300987C 88.13999 53.956985 88.31199 53.78399 88.65699 53.78399L88.65699 53.78399L92.22099 53.78399C 92.564995 53.78399 92.743 53.95699 92.743 54.300987L92.743 54.300987L92.743 77.39099C 92.743 81.14199 91.80399 83.99199 89.92799 85.93799zM86.582 59.126C 85.721 56.923 83.723 55.82 80.590004 55.82C 76.560005 55.82 74.546005 58.335 74.546005 63.362C 74.546005 66.151 75.218 68.184 76.561005 69.456C 77.559006 70.456 78.851006 70.955 80.435005 70.955C 83.671005 70.955 85.72101 69.853004 86.575005 67.649L86.575005 67.649L86.575005 59.132004zM99.082 74.977L95.517 74.977C 95.173 74.977 94.995995 74.806 94.995995 74.45599L94.995995 74.45599L94.995995 40.318C 94.995995 39.975002 95.16799 39.797 95.517 39.797L95.517 39.797L99.082 39.797C 99.425 39.797 99.603004 39.969 99.603004 40.318L99.603004 40.318L99.603004 74.463C 99.603004 74.807 99.43101 74.984 99.082 74.984zM125.062 64.491C 125.062 64.835 124.88799 65.007996 124.545 65.007996L124.545 65.007996L107.756996 65.007996C 107.963 66.69499 108.687 68.107994 109.926994 69.237C 111.339 70.443 113.11199 71.044 115.246994 71.044C 117.14099 71.044 118.84 70.511 120.36099 69.444C 120.67099 69.236 120.92899 69.236 121.135994 69.444L121.135994 69.444L123.56899 71.923004C 123.84499 72.199005 123.84499 72.44401 123.56899 72.646C 121.08899 74.5 118.21399 75.435005 114.937 75.435005C 111.423996 75.435005 108.496994 74.26501 106.155 71.923004C 103.882996 69.616005 102.746 66.671005 102.746 63.090004C 102.746 59.715004 103.864 56.857002 106.104004 54.515003C 108.170006 52.381004 110.856 51.313004 114.157005 51.313004C 117.29001 51.313004 119.924 52.433002 122.060005 54.671005C 124.26301 56.978004 125.28001 59.871006 125.108 63.349007zM118.295 56.898C 117.125 55.830997 115.712 55.295998 114.064995 55.295998C 112.51499 55.295998 111.15499 55.812996 109.98499 56.845997C 108.814995 57.878 108.07299 59.221996 107.76499 60.874996L107.76499 60.874996L120.21299 60.874996C 120.177986 59.291996 119.54099 57.964996 118.30099 56.897995" stroke="none" fill="#20BEFF" fill-rule="nonzero" />
</g>
</svg>