<?xml version="1.0" standalone="no"?>
<!DOCTYPE svg PUBLIC "-//W3C//DTD SVG 1.0//EN" "http://www.w3.org/TR/2001/REC-SVG-20010904/DTD/svg10.dtd">
<svg xmlns="http://www.w3.org/2000/svg" xmlns:xlink="http://www.w3.org/1999/xlink" id="body_1" width="1024" height="768">

<g transform="matrix(6 0 0 6 128.00003 -0)">
    <path d="M54.32 27.164L33.304 16.559L10.226 28.071L31.82 38.911L54.32 27.164zM63.961 32.031L86 43.16L63.137 54.637L41.512 43.782zM93.398 16.715L116.043 28.07L95.789 38.238L73.707 27.097zM83.652 11.824L63.265 1.601L43.101 11.667L64.109 22.257zM67.715 99.605L67.715 127.421005L92.409996 115.09701L92.38699 87.26901zM92.375 77.555L92.348 50.02L67.715 62.266L67.715 89.813zM122.02 72.398L122.02 100.324005L100.953995 110.83201L100.937996 83.035zM122.02 62.633L122.02 35.266L100.91499 45.758L100.93099 73.348z" stroke="none" fill="#4CABCF" fill-rule="nonzero" />
    <path d="M58.996 62.266L42.366997 53.899L42.366997 90.039C 42.366997 90.039 22.019 46.756 20.14 42.865C 19.897999 42.361 18.897999 41.814003 18.644 41.677002C 14.975999 39.763 4.2889996 34.353 4.2889996 34.353L4.2889996 34.353L4.2889996 98.224L19.074 106.15L19.074 72.75C 19.074 72.75 39.203 111.425995 39.41 111.852005C 39.62 112.274 41.629 116.344 43.793 117.77801C 46.663 119.684006 58.988 127.09401 58.988 127.09401L58.988 127.09401L58.996 62.266z" stroke="none" fill="#4C75CF" fill-rule="nonzero" />
</g>
</svg>