<?xml version="1.0" standalone="no"?>
<!DOCTYPE svg PUBLIC "-//W3C//DTD SVG 1.0//EN" "http://www.w3.org/TR/2001/REC-SVG-20010904/DTD/svg10.dtd">
<svg xmlns="http://www.w3.org/2000/svg" xmlns:xlink="http://www.w3.org/1999/xlink" id="body_1" width="64" height="64">

<g transform="matrix(0.5 0 0 0.5 0 0)">
    <path d="M16.25 112.609C 14.012 112.609 11.7369995 111.684 10.309 109.87L10.309 109.87L10.309 119.666L5.833 119.666L5.833 95.486L9.882 95.486L10.041 98.137C 11.43 96.093 13.898001 95.013 16.251 95.016C 20.762 95.016 24.088999 98.795 24.088999 103.811C 24.088999 108.826 20.759998 112.612 16.248999 112.61L16.248999 112.61L16.25 112.609zM14.863 98.339005C 12.25 98.339005 10.117001 100.383 10.117001 103.816C 10.117001 107.249 12.237 109.293 14.861 109.293C 17.484 109.293 19.6 107.249 19.6 103.816C 19.6 100.383 17.484001 98.339005 14.863001 98.339005zM40.958 112.15L40.803 109.49C 39.415 111.533 36.946003 112.613 34.595 112.613C 30.082 112.613 26.758001 108.832 26.758001 103.818C 26.758001 98.805 30.075 95.023 34.595 95.026C 36.945 95.026 39.415 96.114 40.803 98.149L40.803 98.149L40.958 95.489L45.008 95.489L45.008 112.152zM35.984 98.340004C 33.371002 98.340004 31.240002 100.384 31.240002 103.817C 31.240002 107.25 33.36 109.294 35.984 109.294C 38.607002 109.294 40.727 107.25 40.727 103.819C 40.727 100.389 38.607002 98.353 35.984 98.34zM60.662003 112.15401L60.662003 102.92601C 60.662003 99.68601 59.542004 98.60601 57.499 98.60601C 55.379 98.60601 53.064 100.53301 53.062 102.84701L53.062 102.84701L53.062 112.143005L48.59 112.143005L48.59 95.489L52.69 95.489L52.881 98.576C 54.001 96.453995 56.508 95.028 59.053 95.028C 63.487 95.028 65.148 98.115 65.148 102.242L65.148 102.242L65.148 112.154zM81.539 112.156006L81.384 109.494C 79.997 111.538 77.529 112.617004 75.175 112.617004C 70.663 112.617004 67.338005 108.837006 67.338005 103.823006C 67.338005 98.809006 70.656006 95.03001 75.175 95.03001C 77.411 95.03001 79.688 95.95701 81.115005 97.770004L81.115005 97.770004L81.115005 89.01501L85.588005 89.01501L85.588005 112.156006zM76.567 98.354004C 73.943 98.354004 71.821 100.398 71.821 103.831C 71.821 107.264 73.941 109.306 76.563995 109.309C 79.187996 109.309 81.308 107.264 81.308 103.831C 81.308 100.398 79.187996 98.354004 76.567 98.354004zM102.4 112.158005L102.246 109.498C 100.857 111.542 98.388 112.622 96.037 112.62C 91.524 112.62 88.200005 108.840004 88.200005 103.827C 88.200005 98.813 91.518005 95.032005 96.037 95.034004C 98.388 95.034004 100.857 96.123 102.246 98.158005L102.246 98.158005L102.401 95.498L106.461 95.498L106.461 112.158005zM97.426 98.354004C 94.803 98.354004 92.683 100.398 92.683 103.831C 92.683 107.264 94.803 109.309 97.425995 109.309C 100.04899 109.309 102.17 107.264 102.17 103.831C 102.17 100.398 100.049995 98.354004 97.425995 98.354004zM116.364 112.700005L117.096 109.605C 118.446 110.415 120.49 111.458 122.958 111.458C 124.732 111.458 125.967 110.918 125.967 109.528C 125.967 108.334 124.695 107.909 122.418 107.369C 118.332 106.481 116.865 104.32201 116.867 101.969C 116.867 99.356 118.910995 96.879 123.423996 96.879C 126.162994 96.879 128.553 98.076 129.084 98.382996L129.084 98.382996L128.359 101.33299L129.084 98.382996L128.359 101.33299C 126.54599 101.33299 125.658 101.94999 125.658 102.952995C 125.658 104.06999 126.815994 104.573 128.59 104.996994C 132.985 105.923 134.76 107.966995 134.76 110.204994C 134.76 113.784 132.136 115.979996 127.856995 115.979996zM53.942 16.057L61.889 16.057L61.889 32.56L53.942 32.56zM53.942 49.954998L61.889 49.954998L61.889 66.457L53.942 66.457z" stroke="none" fill="#130754" fill-rule="nonzero" />
    <path d="M53.942 37.379L61.889 37.379L61.889 45.165L53.942 45.165L53.942 37.379z" stroke="none" fill="#FFCA00" fill-rule="nonzero" />
    <path d="M41.175 29.626L49.121998 29.626L49.121998 84.48L41.175 84.48L41.175 29.626zM66.445 63.57L74.393 63.57L74.393 80.072L66.445 80.072zM66.445 29.646L74.393 29.646L74.393 46.148003L66.445 46.148003z" stroke="none" fill="#130754" fill-rule="nonzero" />
    <path d="M66.445 50.965L74.393 50.965L74.393 58.75L66.445 58.75L66.445 50.965z" stroke="none" fill="#E70488" fill-rule="nonzero" />
    <path d="M78.945 11.762L86.893 11.762L86.893 66.615L78.945 66.615L78.945 11.762z" stroke="none" fill="#130754" fill-rule="nonzero" />
</g>
</svg>