<?xml version="1.0" standalone="no"?>
<!DOCTYPE svg PUBLIC "-//W3C//DTD SVG 1.0//EN" "http://www.w3.org/TR/2001/REC-SVG-20010904/DTD/svg10.dtd">
<svg xmlns="http://www.w3.org/2000/svg" xmlns:xlink="http://www.w3.org/1999/xlink" id="body_1" width="1024" height="768">

<g transform="matrix(6 0 0 6 128.00003 -0)">
    <path transform="matrix(0.9965 0 0 1.00092 0.241 -0.016)"  d="M17.576 17L-0.242 34.688L-0.242 110.914L110.39 110.914L128.206 93.227005L128.206 17L115.86 17L17.576 17zM47.566 33.426003C 55.926003 33.426003 61.794003 35.773003 65.121 40.512C 68.491005 45.202 70.154 52.462 70.154 62.285004C 70.154 68.758 69.454 73.97301 68.1 77.93001C 66.697 81.92601 64.465996 84.96901 61.313 87.05501L61.313 87.05501L68.143 97.96501L59.779 101.83201L52.557 90.05501C 51.507 90.40201 49.842 90.531006 47.567 90.531006C 39.117 90.531006 33.207 88.273 29.881 83.754005C 26.554 79.23401 24.891 72.064 24.891 62.328003C 24.891 52.551003 26.597 45.293003 29.967001 40.555C 33.337 35.815002 39.247 33.425 47.567 33.425zM81.492004 36.598003L90.297005 36.598003L90.297005 48.289L101.504005 48.289L101.504005 55.766003L90.297 55.766003L90.297 73.539C 90.297 76.844 90.555 79.016 91.036995 80.102005C 91.519 81.188 92.786995 81.711006 94.759995 81.711006L94.759995 81.711006L101.411995 81.449005L101.809 88.489006C 98.174995 89.18301 95.416 89.531006 93.492 89.531006C 88.893 89.531006 85.739 88.48801 84.033 86.40201C 82.326 84.31601 81.449 80.36301 81.449 74.53901L81.449 74.53901L81.449 55.811L75.279 55.811L75.279 48.289L81.492 48.289zM47.612003 41.293003C 42.532005 41.293003 39.031002 42.945004 37.102005 46.289C 35.222004 49.637 34.258003 54.939003 34.258003 62.285004C 34.258003 69.58501 35.178 74.844 37.016003 77.97301C 38.853004 81.102005 42.4 82.711006 47.611004 82.711006C 52.818005 82.711006 56.322006 81.145004 58.161003 78.059006C 59.957005 74.97301 60.873 69.715004 60.873 62.371006C 60.873 54.984005 59.956 49.637005 58.073 46.289005C 56.193 42.945004 52.731003 41.293007 47.611 41.293007z" stroke="#000000" stroke-width="1" fill="#41CD52" fill-rule="nonzero" stroke-opacity="0" />
    <path d="M-5.736 -0.453L135.698 -0.453L135.698 135.547L-5.736 135.547L-5.736 -0.453z" stroke="#41CD52" stroke-width="0.004" fill="none" />
</g>
</svg>